<svg width="17" height="15" viewBox="0 0 17 15" fill="none" xmlns="http://www.w3.org/2000/svg">
<path fill-rule="evenodd" clip-rule="evenodd" d="M0.100097 7.49995C0.100097 7.00289 0.503041 6.59995 1.0001 6.59995L13.7656 6.59995L8.7763 1.8487C8.418 1.50418 8.40683 0.934446 8.75135 0.576151C9.09586 0.217857 9.6656 0.206686 10.0239 0.551199L16.6239 6.8512C16.8004 7.02088 16.9001 7.25513 16.9001 7.49995C16.9001 7.74476 16.8004 7.97902 16.6239 8.1487L10.0239 14.4487C9.6656 14.7932 9.09586 14.782 8.75135 14.4237C8.40683 14.0655 8.418 13.4957 8.7763 13.1512L13.7656 8.39995L1.0001 8.39995C0.503041 8.39995 0.100097 7.99701 0.100097 7.49995Z" fill="#262626"/>
</svg>
